<?xml version="1.0" encoding="UTF-8"?>
<svg version="1.1" xmlns="http://www.w3.org/2000/svg" width="16" height="16">
<path d="M0 0 C2.875 -0.1875 2.875 -0.1875 6 0 C6.66 0.99 7.32 1.98 8 3 C8.86625 2.5359375 8.86625 2.5359375 9.75 2.0625 C11.84294184 1.07416636 13.74535275 0.4831387 16 0 C15.29875 0.886875 14.5975 1.77375 13.875 2.6875 C11.63312938 5.76624359 11.63312938 5.76624359 12.625 8.5625 C13.07875 9.366875 13.5325 10.17125 14 11 C14.66666667 12.66666667 15.33333333 14.33333333 16 16 C13.25 16.25 13.25 16.25 10 16 C7.625 14 7.625 14 6 12 C5.3503125 12.99 5.3503125 12.99 4.6875 14 C4.130625 14.66 3.57375 15.32 3 16 C2.01 16 1.02 16 0 16 C1.33333333 13.33333333 2.66666667 10.66666667 4 8 C3.01 6.576875 3.01 6.576875 2 5.125 C0 2 0 2 0 0 Z " fill="#000000" transform="translate(0,0)"/>
</svg>
